<svg xmlns="http://www.w3.org/2000/svg" height="44" viewBox="0 0 1065.392 186.626" width="255" xmlns:v="https://vecta.io/nano"><g transform="translate(-82.618 -54.024)"><path d="M278.04 237.36c0 1.82-40.8 3.3-91.14 3.3s-91.14-1.47-91.14-3.3c0-1.82 40.8-3.3 91.14-3.3 50.33 0 91.14 1.48 91.14 3.3z" fill="#e6e7e8"/><path d="M219.54 236.42c0 1.3-24.4 2.36-54.47 2.36-30.1 0-54.48-1.06-54.48-2.36s24.37-2.36 54.47-2.36c30.08 0 54.47 1.06 54.47 2.36z" fill="#d0d2d3"/><path d="M327.73 90.72c16.95 50.86-33.97 112.64-110.45 135.62C140.8 249.3 99.12 224.3 85.26 187.3c-11.53-30.73 14.3-88.03 84.76-116.1 68.32-27.22 143.58-22.87 157.7 19.52z" fill="#e31e26"/><linearGradient gradientUnits="userSpaceOnUse" id="A" x1="120.59" x2="283.15" y1="204.05" y2="41.484"><stop offset="0" stop-color="#fff"/><stop offset="1" stop-color="#be1e2d"/></linearGradient><path d="M315.4 74.8c18.56 33.44-35.1 83.72-111.6 106.7-76.47 22.97-110.13 7.4-119.05-19.37-5.14-15.4 28.77-69.86 85.2-91.2C238.6 45 303.3 53 315.4 74.8z" fill="url(#A)" opacity=".2"/><path d="M160.53 237c-36.83 0-63.67-18.13-64.3-51.83-.62-74.27 82.4-133.57 151.68-131.07 63.67 1.88 59.93 54.3 1.26 82.4-18.72 8.73-46.8 16.22-64.3 15.6-10.6-.63-11.85-5.62.63-5.62 10.6 0 36.82-6.24 58.66-17.47C301.58 97.8 276 59.1 232.3 79.1c-33.7 15.6-73.03 60.54-79.9 98.62-4.36 24.35 6.25 43.07 31.2 42.44 43.7-.62 120.48-64.9 149.8-93 9.37-9.36 9.37 1.87 3.76 6.87-47.43 43.7-107.98 102.36-176.63 103z" fill="#fff"/></g><path d="M328.6 40.07l.6 1.37.46 1.26 10.78 25.66c3.4 8.2 6.3 14.7 8.67 19.45l17.36-49.2c.14-.2.26-.5.37-.84a9.96 9.96 0 0 0 .26-.95 48.85 48.85 0 0 0 .52-2.2c.14-.7.2-1.26.2-1.68v-.32c-.06-.07-.1-.14-.1-.2-.2-.64-.8-1.22-1.78-1.74a22.83 22.83 0 0 0-3.26-1.42c-.35-.14-.68-.28-1-.42s-.65-.28-1-.42l-2.84-1.26h29.23l-2.3.84c-.15.14-.3.23-.48.26-.2.04-.34.1-.48.16l-1.37.47c-.5.18-.95.33-1.37.47-1.26.35-2.42.77-3.47 1.26s-1.74 1.05-2.1 1.68l-.62 1.05a5.75 5.75 0 0 0-.53 1.05c-.28.42-.53.88-.74 1.37s-.4 1.02-.62 1.58c-.63 1.33-1.94 4.8-3.94 10.4l-6.36 18.3a9.89 9.89 0 0 0-.2.7 3.21 3.21 0 0 1-.33.67l-6.3 18.87-3.7 11.1c-.2.76-.38 1.48-.52 2.15s-.25 1.3-.3 1.94a10.54 10.54 0 0 1-.06 1 7.87 7.87 0 0 0-.05 1 14.99 14.99 0 0 1-.05 1.2c-.04.4-.1.83-.16 1.33h-5.14c-.2-.64-.4-1.2-.58-1.7l-.58-1.57c-.07-.14-.12-.3-.16-.47s-.1-.33-.16-.47c-.14-.36-.26-.73-.37-1.12-.1-.38-.22-.8-.36-1.2-.84-2.6-1.9-5.6-3.15-9s-2.6-6.85-4-10.36c-.22-.5-.4-.98-.6-1.47s-.36-.95-.57-1.37l-6-14.93-3.78-8.83-3.47-7.68-3.68 8.94c-.42 1.05-1.35 3.65-2.8 7.78l-4.56 13.35a1.4 1.4 0 0 1-.05.38c-.05.1-.1.2-.17.26l-4.3 12.88-2.74 8.25-.6 2.1c-.17.63-.32 1.26-.46 1.9 0 .13-.02.3-.05.46a2.57 2.57 0 0 1-.17.47c-.07.56-.18 1.1-.32 1.63a32.52 32.52 0 0 0-.4 1.73h-5.16c-.2-.63-.4-1.2-.58-1.68s-.33-1-.47-1.58l-.48-1.53-.58-1.73c-.98-3-2.5-7.15-4.52-12.4l-6.52-16.52c-.07-.28-.18-.58-.3-.9-.15-.3-.3-.64-.43-1l-7.83-19.23-4.68-11.37-.37-.95a7.78 7.78 0 0 0-.38-.84 7.12 7.12 0 0 1-.16-.53 2.24 2.24 0 0 0-.26-.52c-.14-.35-.3-.72-.47-1.1-.18-.38-.37-.8-.58-1.2-.35-.64-.96-1.18-1.84-1.64s-1.87-.9-3-1.32c-.06 0-.15-.03-.25-.1s-.23-.1-.37-.1c-.5-.22-1-.43-1.52-.64-.53-.2-1.04-.46-1.53-.74l-2.1-1.26h31.96l-2.74 1.16c-.42.2-.95.42-1.58.63s-1.3.42-2 .63a19.61 19.61 0 0 0-2.8 1.26c-.9.49-1.4 1.1-1.62 1.8-.07.13-.1.3-.1.46v.68c0 .35 0 .74.04 1.16s.1.88.16 1.37l.42 1.68c.14.57.28 1.06.42 1.48l20.82 49.53 5.4-14.87 8.16-22.45 2.05-5.84 2.05-5.73 1.37-3.88a117.77 117.77 0 0 0 1.16-3.47l.1-.1v-.1a108.41 108.41 0 0 0 1.27-3.53l1.37-4.05 1 3.2.9 2.9a5.18 5.18 0 0 0 .3 1.05c.15.35.26.7.33 1.05.35 1.12.75 2.24 1.2 3.36l1.53 3.68v-.03zm101.06-14.4c.14.07.3.1.47.1h1.53c11 0 20.54 3.62 28.6 10.84s12.23 16.94 12.5 29.14c.15 12.27-4.1 22.1-12.7 29.5-8.63 7.4-18.8 11-30.5 10.87-11-.06-20.35-4-28.02-11.82-7.68-7.82-11.5-17.33-11.5-28.55 0-10.94 3.88-20.22 11.66-27.86s17.1-11.67 27.96-12.1zm-.1 5.9c-9.53.34-17.1 3.86-22.66 10.56s-8.33 14.5-8.25 23.4c.14 8.55 3.15 16.37 9.04 23.45s13.38 10.9 22.5 11.46h1.04c.14.07.3.1.47.1h.6c8.54 0 15.97-3.06 22.28-9.2 6.3-6.13 9.46-14.04 9.46-23.7 0-9.47-3.2-17.85-9.62-25.14s-14.32-10.9-23.7-10.83h-1.17zm83.69 37.21l-2.1.42 11.67 12.93 3.52 4.05 3.2 3.63a15.03 15.03 0 0 0 .9 1c.32.33.6.66.9 1 .83.92 1.73 1.83 2.67 2.74.96.9 1.95 1.9 3 2.94.64.56 1.18 1.07 1.64 1.52a17.35 17.35 0 0 0 1.42 1.3l.8.64c.26.21.53.42.88.63.63.42 1.35.86 2.16 1.32s1.84 1 3.1 1.62l2.84 1.26-3.47.84c-.14.07-.32.1-.53.1h-.74c-1.12 0-2.5-.2-4.16-.58s-3.35-.86-5.1-1.42c-1.96-.77-4.33-2.56-7.1-5.36s-5.63-5.82-8.57-9.04a1.27 1.27 0 0 0-.2-.16c-.08-.03-.12-.1-.12-.16a45.28 45.28 0 0 1-1.8-1.9l-1.67-1.88-15.35-16.4h-2.84v24.92c0 1.2.04 2.23.15 3.1.1.88.5 1.73 1.2 2.58.43.56 1.18 1.03 2.27 1.42s2.22.72 3.42 1l.58.2c.17.08.37.12.58.12a17.56 17.56 0 0 1 1.58.47 58.76 58.76 0 0 0 1.37.47l2.3.84h-35.63l2.42-.74c.56-.07 1.2-.2 1.94-.42l2.26-.63 2.2-.8c.7-.26 1.3-.5 1.8-.78.42-.14.75-.3 1-.53a5.46 5.46 0 0 0 .58-.53c.35-.4.6-.88.74-1.4.14-.54.24-1.08.3-1.64v-60c0-.9-.04-1.75-.15-2.52s-.43-1.5-1-2.2c-.48-.57-1.27-1.1-2.36-1.64s-2.23-1.04-3.42-1.53l-2.05-.8c-.67-.23-1.28-.46-1.84-.67l-2.3-.95h19.13c1.05.07 2.03.1 2.94.05.9-.03 1.82-.1 2.73-.16h.84a58.4 58.4 0 0 0 2.3-.05l2.43-.06c.77 0 1.56.02 2.37.05a67.45 67.45 0 0 1 2.58.15l1.63.2c.53.06 1.07.15 1.63.22 4.22.9 8.1 3.12 11.68 6.62 3.57 3.5 5.36 8.37 5.36 14.6 0 4.78-1.17 8.53-3.52 11.26s-4.93 4.8-7.73 6.2c-1.27.63-2.53 1.16-3.8 1.58-1.26.42-2.42.77-3.47 1.05v-.12zm-4.83-36.9a2.08 2.08 0 0 1-.58.1 1.16 1.16 0 0 1-.47-.1h-1.57c-1.34 0-2.62.08-3.85.25-1.23.18-2.05.4-2.47.68-.63.43-1 1-1.1 1.7s-.16 1.43-.16 2.2v28.72l4.94-.1c5.54 0 10.3-1.53 14.3-4.58s5.96-7.06 5.9-12.04v-1.26c-.36-4.27-1.9-7.76-4.58-10.46-2.7-2.7-5.66-4.3-8.9-4.78-.2-.07-.43-.12-.67-.16-.24-.03-.5-.05-.78-.05zm67.5 62.87a12 12 0 0 0 .2 2.2c.13.7.47 1.3.96 1.8.42.42.98.7 1.68.84s1.4.24 2.1.3h.93l12.94-.1c.5.07 1 .1 1.53.05.53-.03 1.07-.12 1.63-.26a12.05 12.05 0 0 0 2.1-.43c.7-.21 1.3-.5 1.8-.84.97-.63 1.7-1.44 2.2-2.42s.95-2.06 1.37-3.25a6.8 6.8 0 0 1 .26-.8c.1-.23.2-.46.26-.67l1.36-3.9v17.67h-53.52l2.42-.74c.56-.06 1.2-.2 1.94-.4l2.26-.64a90.07 90.07 0 0 1 2.1-.8c.7-.26 1.33-.5 1.9-.78.34-.14.66-.3.94-.53.28-.2.5-.38.63-.53.14-.2.26-.42.37-.63.1-.22.23-.43.37-.64a5.14 5.14 0 0 0 .26-1.26 13.27 13.27 0 0 0 .05-1.26V37.38a1.86 1.86 0 0 1 .1-.58v-1.16a6.87 6.87 0 0 0-.05-.8c-.04-.23-.1-.5-.16-.78a6.61 6.61 0 0 0-.32-1.2c-.14-.4-.35-.76-.63-1.1a4.96 4.96 0 0 0-.63-.54 4.41 4.41 0 0 0-.96-.53c-.56-.3-1.2-.55-1.9-.8s-1.4-.5-2.1-.8l-2.25-.62c-.75-.22-1.4-.38-1.95-.53l-2.42-.84h35.65l-2.3.96c-.43.28-.92.5-1.48.63l-1.8.4c-.13.08-.27.13-.4.17s-.3.1-.43.16c-1.2.28-2.33.6-3.42 1s-1.84.82-2.26 1.3c-.08.15-.17.27-.27.37s-.2.22-.26.36c-.42.76-.67 1.53-.74 2.32s-.1 1.67-.1 2.63v57.35zm117.24-33.33c.07.84.12 1.65.16 2.42s.05 1.54.05 2.3c0 8.63-1.96 15.57-5.9 20.83s-8.23 9.3-12.92 12.1c-3.22 1.95-6.33 3.42-9.3 4.4-3 1-5.32 1.6-7 1.8-.98.14-2.1.26-3.3.37s-2.52.16-3.85.16c-.7 0-1.4-.02-2.1-.05a36.79 36.79 0 0 0-2.1-.05c-.98-.07-1.96-.12-2.94-.16s-1.93-.1-2.84-.16c-1.54-.14-3-.25-4.36-.3-1.37-.08-2.5-.12-3.42-.12h-22.3l2.32-.84a37.28 37.28 0 0 0 1.68-.53l1.9-.64c1.18-.42 2.32-.9 3.4-1.42 1.1-.53 1.85-1.07 2.27-1.63.15-.13.26-.27.33-.4s.14-.25.2-.33c.43-.7.73-1.38.9-2.05s.26-1.42.26-2.26v-57.4a17.88 17.88 0 0 0-.17-2.53c-.11-.77-.44-1.5-1-2.2-.5-.57-1.28-1.08-2.37-1.54s-2.23-.87-3.42-1.22a18.2 18.2 0 0 0-2.05-.68c-.67-.18-1.3-.37-1.85-.58l-2.3-.95h19.13c.9.07 2 .07 3.26 0l4.2-.2a105.57 105.57 0 0 0 4.9-.12c1.72-.07 3.52-.1 5.42-.1l3.78.05 3.8.16 2.62.2c.84.06 1.68.2 2.52.32 1.82.28 3.85.8 6.1 1.52 2.24.74 4.55 1.77 6.94 3.1 4.5 2.52 8.67 6.15 12.57 10.88 3.88 4.73 6.14 10.7 6.77 17.93v-.08zm-59.93-23.97v56.57c0 1.12.14 2.12.42 3s.88 1.6 1.8 2.15c.06.07.15.12.25.16s.26.05.47.05c.9.2 2.4.42 4.47.63 2.07.22 4.33.33 6.78.33h1.63c.53 0 1.03-.03 1.53-.1 2.24-.07 4.43-.28 6.57-.63s3.98-.88 5.52-1.58l4.05-1.84c1.51-.67 3.06-1.5 4.68-2.47 3.08-1.95 5.96-4.86 8.62-8.72 2.66-3.85 4.13-9.4 4.42-16.6V67c0-7.7-2.4-14.76-7.2-21.13-4.8-6.38-11.3-10.48-19.5-12.3-.84-.2-2.35-.38-4.52-.53-2.17-.14-4.5-.17-6.94-.1h-.42c-2.46 0-4.75.08-6.9.25-2.13.17-3.58.46-4.35.88a2.12 2.12 0 0 0-1.1 1.37c-.17.63-.25 1.33-.25 2.1v-.1z"/><path d="M701.26 27.14h49.63l5.46-2-.2 23.55-1.7-5.58c-.06-.07-.1-.16-.15-.26a.97.97 0 0 1-.04-.26l-.37-1.26-.38-1.26-1.58-3.94c-.56-1.23-1.33-2-2.3-2.37a5.27 5.27 0 0 0-1.06-.3c-.36-.06-.7-.12-1.05-.12-.35-.07-.7-.1-1.05-.1H730.7v61.5c0 1.2.05 2.23.16 3.1.1.88.5 1.73 1.2 2.58.43.56 1.18 1.03 2.27 1.42s2.23.72 3.42 1l.58.2c.17.08.37.12.58.12l1.6.47 1.36.47 2.3.85h-35.63l2.42-.74c.56-.06 1.2-.2 1.94-.4l2.25-.64 2.1-.8 1.9-.78a3.79 3.79 0 0 0 .94-.53c.27-.2.48-.38.62-.53l.58-1c.17-.32.3-.65.37-1l.16-1.05.05-.95v-1.06a1.77 1.77 0 0 1-.1-.58V33.23h-16.3c-.36.07-.7.1-1 .1a3.83 3.83 0 0 0-.9.12 4.15 4.15 0 0 1-.47.2l-.46.22c-.84.56-1.5 1.54-2 2.94s-.9 2.9-1.26 4.52c-.07.2-.12.44-.16.68a5.68 5.68 0 0 1-.16.68l-.26 1.05-.26 1.05-1.16 3.58-.53-22.92zm95.78 41.64l-2.1.42 11.67 12.93 3.53 4.05 3.2 3.63.9 1 .9 1 2.68 2.74 3 2.94 1.64 1.52 1.42 1.3.8.64c.26.21.53.42.88.63l2.15 1.32 3.1 1.62 2.83 1.26-3.47.84c-.14.07-.32.1-.53.1h-.74c-1.13 0-2.52-.2-4.16-.58l-5.1-1.42c-1.96-.77-4.33-2.56-7.1-5.36s-5.63-5.82-8.57-9.04a1.27 1.27 0 0 0-.2-.16c-.08-.03-.12-.1-.12-.16a45.28 45.28 0 0 1-1.8-1.9l-1.67-1.88-15.35-16.4H782v24.92l.15 3.1c.1.88.5 1.73 1.2 2.58.43.56 1.18 1.03 2.27 1.42s2.22.72 3.42 1l.58.2c.17.08.37.12.58.12a17.56 17.56 0 0 1 1.58.47 58.76 58.76 0 0 0 1.37.47l2.3.84h-35.64l2.43-.74c.56-.07 1.2-.2 1.94-.42l2.26-.63 2.2-.8c.7-.26 1.3-.5 1.8-.78.42-.14.75-.3 1-.53a5.46 5.46 0 0 0 .58-.53c.36-.4.6-.88.75-1.4.14-.54.25-1.08.32-1.64v-60c0-.9-.05-1.75-.16-2.52s-.43-1.5-1-2.2c-.48-.57-1.27-1.1-2.36-1.64s-2.23-1.04-3.42-1.53l-2.05-.8-1.84-.67-2.3-.95h19.13c1.05.07 2.03.1 2.95.05l2.74-.16h.84a58.4 58.4 0 0 0 2.3-.05l2.43-.06 2.37.05a67.45 67.45 0 0 1 2.58.15l1.63.2a64.76 64.76 0 0 0 1.63.22c4.22.9 8.1 3.12 11.68 6.62s5.36 8.37 5.36 14.6c0 4.78-1.17 8.53-3.52 11.26s-4.93 4.8-7.73 6.2c-1.27.63-2.53 1.16-3.8 1.58-1.26.42-2.42.77-3.47 1.05v-.12zm-4.83-36.9c-.2.06-.4.1-.57.1s-.33-.04-.47-.1h-1.59c-1.33 0-2.6.08-3.84.25-1.23.18-2.05.4-2.47.68-.63.43-1 1-1.1 1.7s-.17 1.43-.17 2.2v28.72l4.94-.1c5.54 0 10.3-1.53 14.3-4.58s5.96-7.06 5.9-12.04v-1.26c-.36-4.27-1.9-7.76-4.58-10.46-2.7-2.7-5.66-4.3-8.9-4.78-.2-.07-.43-.12-.67-.16a6.87 6.87 0 0 0-.8-.05v-.13zm91.37-3.21c.14.46.28.9.42 1.3.07.5.17.96.32 1.38a18.82 18.82 0 0 1 .42 1.47c.98 3.02 2.42 7.17 4.3 12.46l6 16.46.42 1.05.42 1.04 7.2 19.2 4.57 11.3a13.86 13.86 0 0 0 .63 1.46c.21.42.42.88.63 1.37a12.31 12.31 0 0 0 .54 1.1c.2.4.42.8.63 1.2.35.7 1.07 1.34 2.15 1.9 1.1.56 2.26 1.1 3.52 1.58.28.07.56.18.84.32s.56.25.84.32c.2.06.4.15.58.25.17.1.37.2.58.26l2.2.85h-31.1l2.73-1.05a5.39 5.39 0 0 0 1.38-.42c.48-.22 1.02-.42 1.58-.63.98-.35 1.87-.77 2.68-1.26.8-.5 1.3-1.1 1.52-1.8a.26.26 0 0 1 .1-.2v-.33c0-.35-.07-.8-.2-1.37a12.21 12.21 0 0 0-.54-1.58c-.07-.28-.14-.53-.2-.74l-.22-.63a6.8 6.8 0 0 0-.26-.8c-.1-.24-.2-.46-.26-.67l-7.04-19.77h-25.97l-7.36 19.67c-.06.2-.1.37-.15.47-.04.1-.05.23-.05.37a7.12 7.12 0 0 0-.37.96c-.11.36-.2.7-.26 1.05a57.73 57.73 0 0 0-.53 2.22c-.14.7-.2 1.23-.2 1.58v.32c.27.63.8 1.14 1.62 1.52.8.4 1.7.75 2.68 1.1.14 0 .28.02.42.05s.24.08.3.15a14.84 14.84 0 0 0 1.06.37 5.53 5.53 0 0 1 .95.37l2.84 1.04h-28.7l2.3-.84a27.55 27.55 0 0 0 1.64-.53c.6-.2 1.17-.42 1.73-.63 1.2-.42 2.3-.9 3.36-1.47s1.75-1.16 2.1-1.8a10.2 10.2 0 0 0 .53-1.04c.14-.35.28-.67.42-.95.14-.2.25-.42.32-.63s.14-.46.2-.74a6.86 6.86 0 0 0 .38-.83l.37-.95c.9-1.96 1.8-4 2.68-6.15l2.68-6.57 1.48-3.42 1.47-3.52 9.88-25.4 5.47-15.08c.2-.7.4-1.33.58-1.9a29.26 29.26 0 0 0 .47-1.67 1.52 1.52 0 0 1 .1-.57c.07-.17.1-.37.1-.58.15-.35.27-.74.38-1.16s.2-.85.26-1.27l7.04-.1.44 1.54zM877.9 40.7l-10.72 27.56h21.35zm127.6 20.72c.07.84.12 1.65.16 2.42s.05 1.54.05 2.3c0 8.63-1.95 15.57-5.88 20.83s-8.24 9.3-12.93 12.1c-3.23 1.95-6.34 3.42-9.32 4.4-2.98 1-5.3 1.6-7 1.8-.97.14-2.08.26-3.3.37a47.12 47.12 0 0 1-3.84.16c-.7 0-1.4-.02-2.1-.05a36.79 36.79 0 0 0-2.1-.05c-.98-.07-1.96-.12-2.94-.16s-1.93-.1-2.84-.16c-1.54-.14-3-.25-4.36-.3-1.37-.08-2.5-.12-3.42-.12h-22.3l2.32-.84a37.28 37.28 0 0 0 1.68-.53l1.9-.64c1.18-.42 2.32-.9 3.4-1.42 1.1-.53 1.85-1.07 2.27-1.63.14-.13.25-.27.32-.4s.14-.25.2-.33c.43-.7.73-1.38.9-2.05s.26-1.42.26-2.26v-57.4c0-.92-.05-1.76-.16-2.53s-.44-1.5-1-2.2c-.5-.57-1.28-1.08-2.37-1.54s-2.23-.87-3.42-1.22a18.2 18.2 0 0 0-2.05-.68c-.67-.18-1.28-.37-1.84-.58l-2.32-.95h19.14c.9.07 2 .07 3.26 0l4.2-.2a105.57 105.57 0 0 0 4.9-.12c1.72-.07 3.52-.1 5.42-.1l3.78.05 3.8.16 2.62.2c.84.06 1.68.2 2.52.32 1.82.28 3.85.8 6.1 1.52 2.24.74 4.55 1.77 6.94 3.1 4.5 2.52 8.67 6.15 12.57 10.88s6.15 10.7 6.78 17.93v-.08zm-59.94-23.97v56.57c0 1.12.14 2.12.42 3s.87 1.6 1.8 2.15c.06.07.15.12.25.16s.26.05.47.05c.9.2 2.4.42 4.47.63 2.07.22 4.33.33 6.78.33h1.63c.53 0 1.03-.03 1.52-.1 2.24-.07 4.43-.28 6.57-.63s3.98-.88 5.52-1.58c1.18-.56 2.53-1.17 4.04-1.84s3.07-1.5 4.68-2.47c3.08-1.95 5.96-4.86 8.62-8.72 2.66-3.85 4.13-9.4 4.42-16.6V67c0-7.7-2.4-14.76-7.2-21.13-4.8-6.38-11.3-10.48-19.5-12.3-.84-.2-2.35-.38-4.52-.53-2.17-.14-4.5-.17-6.94-.1h-.41c-2.46 0-4.75.08-6.9.25-2.13.17-3.58.46-4.35.88-.56.28-.93.74-1.1 1.37-.18.63-.26 1.33-.26 2.1v-.1zm116.24-10.31l-.1 17.25-1.47-4.22c-.14-.28-.26-.6-.37-.95s-.23-.67-.37-.95c-.36-.98-.73-1.84-1.1-2.58-.4-.74-1-1.38-1.85-1.95a7.82 7.82 0 0 0-1.9-.84c-.7-.21-1.4-.34-2.1-.4-.4 0-.8-.03-1.2-.06s-.8-.05-1.2-.05l-12.94-.12c-.13.07-.27.1-.4.1h-.54c-.84 0-1.67.05-2.47.12-.82.07-1.43.3-1.85.74-.28.28-.46.75-.53 1.42s-.1 1.38-.1 2.16v25.86h17.46a15.92 15.92 0 0 0 2.36-.16c.74-.1 1.42-.4 2.05-.9a6.72 6.72 0 0 1 .42-.36c.14-.11.25-.23.32-.37.35-.3.6-.57.8-.85a20.65 20.65 0 0 0 .57-1.05l2.2-4.63V79.2l-.95-2.43-.26-.74c-.1-.28-.2-.56-.27-.84a4.64 4.64 0 0 1-.16-.38c-.04-.11-.1-.23-.16-.37-.34-1.12-.74-2.2-1.2-3.2s-1.07-1.74-1.84-2.17c-.42-.28-.84-.5-1.26-.63s-.84-.25-1.26-.32-.86-.1-1.3-.1h-17.51V93.8c0 .36.02.74.05 1.16s.1.8.16 1.15c.14.78.33 1.46.58 2.05s.58 1 1 1.2c.56.28 1.07.46 1.52.52.46.07.93.1 1.42.1h.58a1.86 1.86 0 0 0 .58-.1h1.17l17.24-.1a2.24 2.24 0 0 0 .63.1h.63c.14.07.32.1.53.1h.64c.35 0 .7-.03 1.05-.1s.7-.17 1.04-.32c.56-.28 1.03-.84 1.42-1.68.38-.84.75-1.8 1.1-2.84.07-.2.14-.44.2-.68s.15-.47.22-.68a21.45 21.45 0 0 1 .47-1.26l.47-1.15 1.37-3.36-.54 17.02h-55.73l2.42-.74c.56-.07 1.2-.2 1.94-.42l2.25-.63a90.07 90.07 0 0 1 2.1-.8c.7-.26 1.33-.5 1.9-.78.34-.14.66-.3.94-.53.27-.2.48-.38.62-.53a3.76 3.76 0 0 0 .74-1.43c.14-.53.24-1.07.32-1.63V35.45a10.84 10.84 0 0 0-.16-1.95c-.1-.6-.4-1.17-.9-1.73-.13-.14-.34-.32-.62-.53s-.6-.38-.95-.53c-.56-.27-1.2-.53-1.9-.78s-1.4-.5-2.1-.8l-2.25-.62c-.75-.22-1.4-.38-1.94-.53l-2.42-.84h52.66z" fill="#6d6e71"/><path d="M289.46 148.52l5.17 1.3c-1.08 4.25-3.03 7.48-5.85 9.7s-6.26 3.36-10.33 3.36c-4.2 0-7.63-.86-10.27-2.57s-4.65-4.2-6.02-7.44c-1.38-3.25-2.06-6.74-2.06-10.47 0-4.08.78-7.63 2.33-10.66s3.77-5.33 6.64-6.9 6.03-2.36 9.47-2.36c3.9 0 7.2 1 9.86 2.98 2.66 2 4.52 4.8 5.57 8.4l-5.1 1.2c-.9-2.85-2.2-4.92-3.93-6.22s-3.9-1.94-6.5-1.94c-3 0-5.5.72-7.53 2.16s-3.42 3.37-4.24 5.8a23.3 23.3 0 0 0-1.23 7.5c0 3.32.48 6.22 1.45 8.7s2.47 4.33 4.52 5.56a12.64 12.64 0 0 0 6.64 1.84c2.9 0 5.35-.83 7.35-2.5 2-1.68 3.35-4.16 4.06-7.44zm10.01-.46c0-5.24 1.46-9.12 4.37-11.65 2.43-2.08 5.4-3.13 8.9-3.13 3.9 0 7.07 1.27 9.54 3.82s3.7 6.06 3.7 10.56c0 3.64-.55 6.5-1.64 8.6a11.61 11.61 0 0 1-4.77 4.85c-2.1 1.17-4.37 1.74-6.83 1.74-3.96 0-7.16-1.27-9.6-3.8-2.45-2.54-3.67-6.2-3.67-10.98zm4.93 0c0 3.62.8 6.34 2.37 8.14s3.57 2.7 5.97 2.7c2.38 0 4.36-.9 5.94-2.7s2.37-4.58 2.37-8.3c0-3.5-.8-6.15-2.38-7.95-1.6-1.8-3.57-2.7-5.93-2.7-2.4 0-4.4.9-5.97 2.68-1.58 1.8-2.37 4.5-2.37 8.13zm28.08 14.14v-28.3h4.32v4.03c2.08-3.1 5.08-4.66 9-4.66 1.72 0 3.28.3 4.7.92s2.5 1.4 3.22 2.4 1.2 2.17 1.5 3.54c.17.9.26 2.44.26 4.66v17.4h-4.8V145c0-1.96-.2-3.42-.56-4.4s-1.04-1.73-2-2.3-2.06-.88-3.33-.88c-2.05 0-3.82.65-5.3 1.95s-2.22 3.76-2.22 7.38v15.45h-4.8zm31.22 0v-28.3h4.32v4.03c2.08-3.1 5.08-4.66 9-4.66 1.72 0 3.28.3 4.7.92s2.5 1.4 3.22 2.4 1.2 2.17 1.5 3.54c.17.9.26 2.44.26 4.66v17.4h-4.8V145c0-1.96-.2-3.42-.56-4.4s-1.04-1.73-2-2.3-2.06-.88-3.33-.88c-2.03 0-3.8.65-5.28 1.95s-2.22 3.76-2.22 7.38v15.45h-4.8zm50.6-9.1l4.96.6c-.78 2.9-2.23 5.15-4.34 6.75s-4.8 2.4-8.1 2.4c-4.14 0-7.42-1.27-9.85-3.82-2.42-2.55-3.64-6.13-3.64-10.72 0-4.75 1.23-8.45 3.68-11.08s5.64-3.94 9.55-3.94c3.78 0 6.87 1.3 9.27 3.86 2.4 2.58 3.6 6.2 3.6 10.87 0 .3 0 .72-.03 1.3h-21.1c.17 3.1 1.05 5.48 2.63 7.13s3.55 2.48 5.92 2.48c1.76 0 3.26-.45 4.5-1.38 1.23-.92 2.22-2.4 2.95-4.42zm-15.75-7.75h15.8c-.2-2.38-.82-4.17-1.8-5.36-1.54-1.86-3.52-2.78-5.95-2.78-2.2 0-4.05.74-5.56 2.2-1.5 1.48-2.33 3.46-2.5 5.93zm46.05 6.5l4.73.6c-.52 3.26-1.83 5.8-3.96 7.64-2.12 1.83-4.73 2.75-7.82 2.75-3.87 0-7-1.27-9.34-3.8s-3.52-6.16-3.52-10.9c0-3.04.5-5.72 1.52-8s2.55-4.02 4.62-5.17 4.32-1.72 6.75-1.72c3.07 0 5.6.78 7.54 2.33s3.22 3.75 3.77 6.6l-4.66.73c-.43-1.9-1.22-3.33-2.35-4.3s-2.5-1.43-4.1-1.43c-2.4 0-4.37.87-5.88 2.6s-2.26 4.47-2.26 8.22c0 3.8.74 6.56 2.2 8.3 1.45 1.7 3.35 2.57 5.7 2.57 1.87 0 3.44-.6 4.7-1.74 1.28-1.14 2.08-2.9 2.4-5.3zm20.18 6.07l.7 4.24c-1.36.28-2.57.43-3.63.43-1.74 0-3.1-.3-4.05-.84s-1.63-1.27-2.03-2.17-.6-2.8-.6-5.67v-16.28h-3.5v-3.73h3.5v-7l4.78-2.9v9.9h4.82v3.73h-4.82v16.55c0 1.37.08 2.25.25 2.64s.44.7.83.93c.38.23.93.35 1.64.35.54 0 1.24-.07 2.1-.2zm5.59-29.25v-5.52h4.8v5.52zm0 33.54v-28.3h4.8v28.3zm12.97-.01v-28.3h4.32v4.03c2.08-3.1 5.08-4.66 9-4.66 1.72 0 3.28.3 4.7.92s2.5 1.4 3.22 2.4 1.2 2.17 1.5 3.54c.17.9.26 2.44.26 4.66v17.4h-4.8V145c0-1.96-.2-3.42-.56-4.4s-1.04-1.73-2-2.3-2.06-.88-3.33-.88c-2.04 0-3.8.65-5.3 1.95s-2.2 3.76-2.2 7.38v15.45h-4.8zm30.34 2.36l4.66.7c.2 1.43.74 2.48 1.63 3.13 1.2.88 2.8 1.32 4.88 1.32 2.22 0 3.93-.44 5.14-1.33s2.02-2.14 2.44-3.74c.25-.98.36-3.03.35-6.16-2.1 2.47-4.72 3.7-7.84 3.7-3.9 0-6.9-1.4-9.03-4.2s-3.2-6.18-3.2-10.1c0-2.7.5-5.2 1.47-7.5.98-2.27 2.4-4.04 4.25-5.28s4.04-1.87 6.54-1.87c3.33 0 6.08 1.35 8.25 4.05v-3.4h4.42v24.45c0 4.4-.45 7.53-1.35 9.37s-2.32 3.3-4.26 4.36-4.34 1.6-7.18 1.6c-3.38 0-6.1-.76-8.18-2.28-2.08-1.5-3.1-3.8-3.02-6.84zm3.97-17c0 3.7.74 6.42 2.2 8.13 1.48 1.7 3.33 2.55 5.55 2.55 2.2 0 4.05-.85 5.54-2.54 1.5-1.7 2.24-4.35 2.24-7.97 0-3.46-.77-6.08-2.3-7.83-1.54-1.76-3.4-2.64-5.56-2.64-2.13 0-3.95.87-5.44 2.6-1.48 1.72-2.23 4.3-2.23 7.7zm44.57 14.64v-39.05h14.65c2.98 0 5.38.4 7.18 1.2s3.22 2 4.24 3.64 1.52 3.35 1.52 5.15c0 1.67-.45 3.24-1.36 4.72-.9 1.47-2.27 2.67-4.1 3.57 2.36.7 4.18 1.87 5.45 3.55 1.28 1.66 1.92 3.63 1.92 5.9a11.5 11.5 0 0 1-1.16 5.1c-.76 1.56-1.73 2.8-2.87 3.65-1.15.85-2.57 1.5-4.3 1.93-1.7.44-3.8.65-6.3.65h-14.88zm5.17-22.64h8.44c2.3 0 3.93-.15 4.93-.45 1.3-.38 2.3-1.03 2.97-1.93s1-2.04 1-3.4c0-1.3-.3-2.45-.93-3.43-.6-1-1.5-1.66-2.66-2.03-1.16-.35-3.14-.54-5.94-.54h-7.8zm0 18.04h9.72c1.67 0 2.84-.06 3.52-.2 1.2-.2 2.18-.56 2.98-1.06s1.46-1.22 1.97-2.17.76-2.05.76-3.3c0-1.45-.37-2.7-1.12-3.8-.75-1.06-1.78-1.82-3.1-2.26s-3.23-.64-5.72-.64h-9.03zm50.25 4.6v-4.15c-2.2 3.2-5.2 4.8-8.98 4.8-1.67 0-3.23-.32-4.68-.96s-2.52-1.45-3.22-2.42-1.2-2.15-1.48-3.56c-.2-.94-.3-2.43-.3-4.48V133.9h4.8v15.7c0 2.5.1 4.2.3 5.06.3 1.26.94 2.25 1.92 2.97s2.18 1.08 3.62 1.08 2.8-.36 4.05-1.1 2.15-1.74 2.68-3c.52-1.28.8-3.12.8-5.54V133.9h4.8v28.3h-4.3zm10.76-8.43l4.74-.75c.27 1.9 1 3.36 2.23 4.37s2.92 1.5 5.1 1.5c2.2 0 3.84-.44 4.9-1.34 1.07-.9 1.6-1.95 1.6-3.16 0-1.08-.47-1.94-1.4-2.56-.67-.43-2.3-.97-4.9-1.63-3.53-.88-5.97-1.65-7.32-2.3-1.36-.64-2.4-1.53-3.1-2.68s-1.04-2.4-1.04-3.8a7.35 7.35 0 0 1 .87-3.5c.58-1.07 1.36-1.97 2.36-2.68.75-.55 1.76-1.02 3.05-1.4s2.67-.57 4.14-.57c2.22 0 4.17.32 5.85.96s2.92 1.5 3.72 2.6 1.34 2.55 1.64 4.38l-4.7.65c-.2-1.46-.82-2.6-1.84-3.4s-2.47-1.24-4.33-1.24c-2.2 0-3.78.37-4.72 1.1s-1.4 1.58-1.4 2.56c0 .62.2 1.18.58 1.68.4.52 1 .94 1.84 1.28.48.18 1.9.6 4.24 1.23 3.4.9 5.77 1.65 7.1 2.23s2.4 1.42 3.17 2.52c.76 1.1 1.15 2.47 1.15 4.1 0 1.6-.47 3.1-1.4 4.52-.93 1.4-2.28 2.5-4.04 3.28-1.76.77-3.75 1.16-5.97 1.16-3.67 0-6.47-.76-8.4-2.3-1.94-1.53-3.17-3.8-3.7-6.8zm30.1-25.1v-5.52h4.8v5.52zm0 33.54v-28.3h4.8v28.3zm12.97-.01v-28.3h4.32v4.03c2.07-3.1 5.07-4.66 9-4.66 1.7 0 3.27.3 4.7.92s2.5 1.4 3.2 2.4 1.22 2.17 1.5 3.54c.18.9.27 2.44.27 4.66v17.4h-4.8V145c0-1.96-.2-3.42-.56-4.4s-1.02-1.73-1.98-2.3c-.95-.6-2.06-.88-3.34-.88-2.04 0-3.8.65-5.3 1.95s-2.22 3.76-2.22 7.38v15.45h-4.8zm50.6-9.1l4.96.6c-.78 2.9-2.23 5.15-4.34 6.75s-4.82 2.4-8.1 2.4c-4.15 0-7.43-1.27-9.85-3.82s-3.64-6.13-3.64-10.72c0-4.75 1.24-8.45 3.7-11.08s5.62-3.94 9.53-3.94c3.78 0 6.87 1.3 9.27 3.86 2.4 2.58 3.6 6.2 3.6 10.87 0 .3 0 .72-.03 1.3h-21.1c.18 3.1 1.06 5.48 2.64 7.13s3.56 2.48 5.93 2.48c1.76 0 3.26-.45 4.5-1.38 1.22-.92 2.2-2.4 2.94-4.42zm-15.75-7.75h15.8c-.2-2.38-.82-4.17-1.8-5.36-1.54-1.86-3.52-2.78-5.95-2.78-2.2 0-4.05.74-5.56 2.2-1.5 1.48-2.32 3.46-2.48 5.93zm25.68 8.42l4.74-.75c.27 1.9 1 3.36 2.23 4.37s2.92 1.5 5.1 1.5c2.2 0 3.84-.44 4.9-1.34 1.07-.9 1.6-1.95 1.6-3.16 0-1.08-.47-1.94-1.4-2.56-.67-.43-2.3-.97-4.9-1.63-3.53-.88-5.97-1.65-7.32-2.3-1.36-.64-2.4-1.53-3.1-2.68s-1.04-2.4-1.04-3.8a7.35 7.35 0 0 1 .87-3.5c.58-1.07 1.36-1.97 2.36-2.68.75-.55 1.76-1.02 3.05-1.4s2.67-.57 4.14-.57c2.22 0 4.17.32 5.85.96s2.92 1.5 3.72 2.6 1.34 2.55 1.64 4.38l-4.7.65c-.2-1.46-.82-2.6-1.84-3.4s-2.47-1.24-4.33-1.24c-2.2 0-3.78.37-4.72 1.1s-1.4 1.58-1.4 2.56c0 .62.2 1.18.58 1.68.4.52 1 .94 1.84 1.28.48.18 1.9.6 4.24 1.23 3.4.9 5.77 1.65 7.1 2.23s2.4 1.42 3.17 2.52c.76 1.1 1.15 2.47 1.15 4.1 0 1.6-.47 3.1-1.4 4.52-.93 1.4-2.28 2.5-4.04 3.28-1.76.77-3.75 1.16-5.97 1.16-3.67 0-6.47-.76-8.4-2.3-1.94-1.53-3.17-3.8-3.7-6.8zm28.16 0l4.74-.75c.27 1.9 1 3.36 2.23 4.37s2.92 1.5 5.1 1.5c2.2 0 3.84-.44 4.9-1.34 1.07-.9 1.6-1.95 1.6-3.16 0-1.08-.47-1.94-1.4-2.56-.67-.43-2.3-.97-4.9-1.63-3.53-.88-5.97-1.65-7.32-2.3-1.35-.64-2.38-1.53-3.08-2.68s-1.05-2.4-1.05-3.8a7.46 7.46 0 0 1 .86-3.5c.58-1.07 1.36-1.97 2.36-2.68.74-.55 1.75-1.02 3.04-1.4s2.67-.57 4.14-.57c2.22 0 4.17.32 5.85.96s2.92 1.5 3.72 2.6 1.35 2.55 1.65 4.38l-4.7.65c-.2-1.46-.82-2.6-1.84-3.4s-2.47-1.24-4.33-1.24c-2.2 0-3.78.37-4.72 1.1s-1.4 1.58-1.4 2.56a2.62 2.62 0 0 0 .6 1.68c.38.52 1 .94 1.83 1.28.48.18 1.9.6 4.24 1.23 3.4.9 5.76 1.65 7.1 2.23s2.4 1.42 3.16 2.52 1.15 2.47 1.15 4.1c0 1.6-.47 3.1-1.4 4.52-.93 1.4-2.28 2.5-4.04 3.28-1.76.77-3.75 1.16-5.97 1.16-3.68 0-6.48-.76-8.4-2.3-1.95-1.53-3.18-3.8-3.7-6.8zm49.44-.67l4.97.6c-.78 2.9-2.23 5.15-4.34 6.75s-4.8 2.4-8.1 2.4c-4.14 0-7.42-1.27-9.84-3.82s-3.65-6.13-3.65-10.72c0-4.75 1.23-8.45 3.68-11.08s5.63-3.94 9.54-3.94c3.78 0 6.87 1.3 9.27 3.86 2.4 2.58 3.6 6.2 3.6 10.87 0 .3 0 .72-.03 1.3h-21.1c.2 3.1 1.07 5.48 2.65 7.13s3.55 2.48 5.92 2.48c1.76 0 3.26-.45 4.5-1.38 1.22-.92 2.2-2.4 2.94-4.42zm-15.74-7.75h15.8c-.2-2.38-.82-4.17-1.8-5.36-1.54-1.86-3.52-2.78-5.95-2.78-2.2 0-4.04.74-5.55 2.2-1.5 1.48-2.33 3.46-2.5 5.93zm25.68 8.42l4.74-.75c.27 1.9 1 3.36 2.23 4.37s2.93 1.5 5.1 1.5c2.2 0 3.85-.44 4.9-1.34 1.08-.9 1.6-1.95 1.6-3.16 0-1.08-.46-1.94-1.4-2.56-.66-.43-2.3-.97-4.9-1.63-3.52-.88-5.96-1.65-7.3-2.3-1.37-.64-2.4-1.53-3.1-2.68s-1.05-2.4-1.05-3.8a7.46 7.46 0 0 1 .86-3.5c.56-1.07 1.37-1.97 2.37-2.68.75-.55 1.76-1.02 3.05-1.4s2.67-.57 4.14-.57c2.22 0 4.17.32 5.85.96s2.93 1.5 3.73 2.6 1.35 2.55 1.65 4.38l-4.7.65c-.2-1.46-.82-2.6-1.84-3.4s-2.47-1.24-4.33-1.24c-2.2 0-3.77.37-4.7 1.1s-1.42 1.58-1.42 2.56a2.62 2.62 0 0 0 .6 1.68c.38.52 1 .94 1.83 1.28.5.18 1.9.6 4.25 1.23 3.4.9 5.76 1.65 7.1 2.23s2.4 1.42 3.16 2.52c.77 1.1 1.16 2.47 1.16 4.1 0 1.6-.47 3.1-1.4 4.52-.93 1.4-2.28 2.5-4.04 3.28-1.76.77-3.75 1.16-5.97 1.16-3.68 0-6.48-.76-8.4-2.3-1.95-1.53-3.18-3.8-3.7-6.8zm65-6.87v-4.6l16.55-.02v14.5c-2.55 2.03-5.17 3.55-7.87 4.57s-5.47 1.53-8.3 1.53c-3.85 0-7.33-.82-10.47-2.47-3.14-1.63-5.5-4-7.1-7.12s-2.4-6.58-2.4-10.42c0-3.8.8-7.35 2.38-10.64 1.6-3.3 3.88-5.74 6.86-7.34s6.42-2.4 10.3-2.4c2.83 0 5.4.46 7.67 1.37s4.07 2.2 5.37 3.82c1.3 1.64 2.28 3.77 2.96 6.4l-4.66 1.28c-.6-2-1.3-3.55-2.18-4.7s-2.1-2.04-3.73-2.72-3.4-1.03-5.38-1.03c-2.36 0-4.4.36-6.13 1.08s-3.1 1.66-4.17 2.84a13.56 13.56 0 0 0-2.47 3.86c-1 2.42-1.5 5.04-1.5 7.86 0 3.48.6 6.4 1.8 8.74s2.95 4.1 5.24 5.22c2.3 1.14 4.73 1.7 7.3 1.7 2.24 0 4.42-.43 6.55-1.3s3.75-1.77 4.85-2.75v-7.27h-11.48zm24.33 15.3v-39.05h4.8v39.06zm11.31-14.14c0-5.24 1.46-9.12 4.37-11.65 2.43-2.08 5.4-3.13 8.9-3.13 3.9 0 7.07 1.27 9.54 3.82s3.7 6.06 3.7 10.56c0 3.64-.56 6.5-1.65 8.6a11.61 11.61 0 0 1-4.77 4.85c-2.1 1.17-4.37 1.74-6.84 1.74-3.96 0-7.16-1.27-9.6-3.8-2.44-2.54-3.66-6.2-3.66-10.98zm4.92 0c0 3.62.8 6.34 2.37 8.14s3.57 2.7 5.97 2.7c2.38 0 4.36-.9 5.94-2.7s2.37-4.58 2.37-8.3c0-3.5-.8-6.15-2.38-7.95-1.6-1.8-3.57-2.7-5.93-2.7-2.4 0-4.4.9-5.97 2.68-1.57 1.8-2.37 4.5-2.37 8.13zm32.48 14.14h-4.45v-39.05h4.8v13.94c2.03-2.55 4.6-3.82 7.75-3.82 1.74 0 3.4.35 4.94 1.05 1.56.7 2.83 1.7 3.84 2.96 1 1.26 1.8 2.8 2.36 4.6s.85 3.7.85 5.75c0 4.85-1.2 8.6-3.6 11.25s-5.28 3.97-8.63 3.97c-3.34 0-5.96-1.4-7.86-4.18zm-.06-14.35c0 3.4.46 5.84 1.4 7.35 1.5 2.47 3.54 3.7 6.12 3.7 2.1 0 3.9-.9 5.44-2.73s2.3-4.53 2.3-8.14c0-3.7-.74-6.42-2.2-8.18s-3.25-2.64-5.33-2.64c-2.1 0-3.9.92-5.43 2.74-1.53 1.83-2.3 4.46-2.3 7.9zm45.36 10.87c-1.78 1.5-3.5 2.57-5.13 3.2-1.64.62-3.4.93-5.3.93-3.1 0-5.5-.76-7.16-2.28s-2.52-3.46-2.52-5.82c0-1.4.32-2.65.95-3.8s1.46-2.07 2.48-2.76a11.63 11.63 0 0 1 3.46-1.58c.94-.25 2.36-.5 4.26-.72 3.87-.46 6.72-1 8.55-1.65l.03-1.25c0-1.95-.45-3.33-1.36-4.13-1.23-1.08-3.05-1.63-5.46-1.63-2.26 0-3.92.4-5 1.2-1.07.78-1.87 2.18-2.38 4.2l-4.7-.65c.44-2.02 1.14-3.64 2.1-4.87 1-1.23 2.4-2.18 4.25-2.85s4-1 6.42-1 4.38.3 5.9.85c1.5.57 2.6 1.28 3.32 2.14s1.2 1.95 1.48 3.26c.16.82.24 2.3.24 4.42v6.4c0 4.46.1 7.28.3 8.46.2 1.2.62 2.32 1.22 3.4h-5c-.5-.98-.82-2.14-.96-3.48zm-.4-10.7c-1.74.7-4.35 1.3-7.83 1.8-1.97.3-3.37.6-4.18.96-.82.36-1.45.87-1.9 1.56a4.19 4.19 0 0 0-.66 2.28c0 1.28.5 2.34 1.46 3.2.97.85 2.38 1.28 4.25 1.28 1.86 0 3.5-.4 4.94-1.2s2.5-1.92 3.17-3.33c.53-1.08.78-2.68.78-4.8zm13.1 14.18v-39.05h4.8v39.06zm13 0v-39.05h4.8v39.06zm12.8 10.9l-.53-4.5c1.05.3 1.96.44 2.74.44 1.06 0 1.9-.18 2.55-.53a4.2 4.2 0 0 0 1.57-1.48c.3-.48.8-1.67 1.47-3.57.08-.27.22-.66.42-1.17l-10.74-28.35h5.17l5.9 16.4c.75 2.07 1.44 4.25 2.04 6.54.54-2.2 1.2-4.35 1.96-6.45l6.05-16.5h4.8l-10.77 28.8c-1.15 3.1-2.05 5.24-2.7 6.4-.84 1.6-1.82 2.75-2.92 3.5s-2.4 1.1-3.94 1.1c-.9-.02-1.94-.22-3.08-.6z"/></svg>